<?xml version="1.0" encoding="UTF-8"?>
<svg version="1.1" xmlns="http://www.w3.org/2000/svg" width="512" height="512">
<path d="M0 0 C0.66 0 1.32 0 2 0 C2.04122986 0.76086411 2.08245972 1.52172821 2.12493896 2.3056488 C2.00484122 109.88541526 2.00484122 109.88541526 47 202 C75.5133994 226.46694338 119.50067712 230.23580023 155.15234375 233.4765625 C155.84995756 233.54014261 156.54757137 233.60372272 157.266325 233.66922951 C173.75208073 235.15944271 190.26233131 236.14091826 206.78814697 237.0602417 C210.67215206 237.27756587 214.55578092 237.50142913 218.43945312 237.72460938 C225.95929748 238.15584674 233.47950036 238.58032742 241 239 C241 239.66 241 240.32 241 241 C240.22438721 241.04122986 239.44877441 241.08245972 238.6496582 241.12493896 C131.10256849 240.99394845 131.10256849 240.99394845 39 286 C14.53305662 314.5133994 10.76419977 358.50067712 7.5234375 394.15234375 C7.45985739 394.84995756 7.39627728 395.54757137 7.33077049 396.266325 C5.84055729 412.75208073 4.85908174 429.26233131 3.9397583 445.78814697 C3.72243413 449.67215206 3.49857087 453.55578092 3.27539062 457.43945312 C2.84415326 464.95929748 2.41967258 472.47950036 2 480 C1.34 480 0.68 480 0 480 C-0.04122986 479.23913589 -0.08245972 478.47827179 -0.12493896 477.6943512 C-0.00484122 370.11458474 -0.00484122 370.11458474 -45 278 C-92.17175882 237.52258319 -180.1050206 243.89307403 -238 241 C-238 240.34 -238 239.68 -238 239 C-237.23389908 238.95654953 -236.46779816 238.91309906 -235.67848206 238.86833191 C-228.28621069 238.44805472 -220.89428697 238.02221263 -213.50265598 237.5908308 C-209.7069232 237.36948642 -205.9111081 237.14994981 -202.11499023 236.93530273 C-161.39400813 234.66578152 -161.39400813 234.66578152 -120.9375 229.6875 C-120.27095398 229.58361969 -119.60440796 229.47973938 -118.91766357 229.37271118 C-87.80821713 224.48901276 -54.15972303 216.30945672 -34 190 C1.77570282 138.8524634 -2.8808494 59.77891803 0 0 Z " fill="#000000" transform="translate(255,16)"/>
</svg>
